<svg xmlns="http://www.w3.org/2000/svg" width="500" height="500" style="width:100%;height:100%;transform:translate3d(0,0,0);content-visibility:visible" viewBox="0 0 500 500"><defs><clipPath id="a"><path d="M0 0h500v500H0z"/></clipPath></defs><g clip-path="url(#a)"><g fill="#14A9E7" style="display:block"><path d="M105.419 318.53c37.848 79.85 133.261 113.899 213.111 76.051S432.429 261.32 394.581 181.47 261.32 67.571 181.47 105.419 67.571 238.68 105.419 318.53z"/><path d="M119.83 133.524a161.358 161.358 0 0 1-11.09 5.788c-79.854 37.85-175.261 3.803-213.111-76.051-37.85-79.854-3.804-175.261 76.05-213.111a161.253 161.253 0 0 1 11.501-4.92C-88.664-113.656-117.828-23.496-81.781 52.553S42.521 163.108 119.83 133.524z" opacity=".5" style="mix-blend-mode:multiply" transform="translate(209.794 255.267)"/></g><g fill="none" stroke="#B8DFF1" stroke-linecap="round" stroke-linejoin="round" stroke-width="9.6" style="display:block"><path d="M295.41 295.066h-52.894c-20.567 0-37.24-16.672-37.24-37.239v-15.654c0-20.567 16.673-37.24 37.24-37.24h15.654c20.567 0 37.24 16.673 37.24 37.24v52.893z"/><path d="M295.41 294.982c60.587-.982 58.88-48.566 58.88-48.566 0-58.954-44.993-103.146-103.947-103.146s-106.746 47.792-106.746 106.746c0 58.954 47.792 106.746 106.746 106.746 25.313 0 48.567-8.81 66.865-23.532"/></g><g class="com" style="display:none"><path/><path/><path/><path/><path/><path/><path/><path/><path/><path/><path/><path/></g></g></svg>